<mxfile host="app.diagrams.net" modified="2023-07-16T07:47:04.305Z" agent="Mozilla/5.0 (Windows NT 10.0; Win64; x64) AppleWebKit/537.36 (KHTML, like Gecko) Chrome/114.0.0.0 Safari/537.36 Edg/114.0.1823.82" version="21.6.2" etag="2kjZxVMzy8fCa54bSQW1" type="github">
  <diagram name="Page-1" id="vq9wpZ0BbNBcqPXVh1EU">
    <mxGraphModel>
      <root>
        <mxCell id="0" />
        <mxCell id="1" parent="0" />
      </root>
    </mxGraphModel>
  </diagram>
</mxfile>
